<?xml version="1.0" encoding="UTF-8"?>
<svg xmlns="http://www.w3.org/2000/svg" viewBox="0 0 257.24 348.17">
  <defs>
    <style>.d{fill:#e6efec;}.e{fill:#02967a;}.f{fill:#b8c9c3;}.g{fill:#b5d348;}.h{fill:#8db2c3;}.i{fill:#8dafbe;}.j{fill:#d1dfdb;}.k{fill:#defd83;}.l{fill:#cae52c;}.m{fill:#129a7e;}.n{fill:#a2bab3;}.o{fill:#51dacb;}.p{fill:#536861;}.q{fill:#829e95;}</style>
  </defs>
  <g id="a"></g>
  <g id="b">
    <g id="c">
      <g>
        <path class="o" d="M148.84,270.74c-.6,0-1.16-.36-1.39-.95-.3-.77,.07-1.64,.84-1.95l44.68-17.66c1.84-.73,2.49-2.37,2.49-3.66s-.65-2.94-2.49-3.66l-9.61-3.8c-2.71-1.07-4.39-3.54-4.39-6.45s1.68-5.38,4.39-6.45l27.27-10.78c.77-.31,1.64,.07,1.95,.84,.3,.77-.07,1.64-.84,1.95l-27.27,10.78c-1.84,.73-2.49,2.37-2.49,3.66s.65,2.94,2.49,3.66l9.61,3.8c2.71,1.07,4.39,3.54,4.39,6.45s-1.68,5.38-4.39,6.45l-44.68,17.66c-.18,.07-.37,.11-.55,.11Z"></path>
        <path class="e" d="M184.2,228.54c-.1,0-.19-.06-.23-.16-.05-.13,.01-.27,.14-.32l27.27-10.78c.14-.05,.24-.16,.3-.29s.06-.28,0-.42c-.05-.13,.01-.27,.14-.32,.13-.05,.27,.01,.32,.14,.1,.26,.1,.55-.01,.8-.11,.26-.32,.46-.58,.56l-27.27,10.78s-.06,.02-.09,.02Z"></path>
        <path class="e" d="M193.22,242.45s-.06,0-.09-.02l-9.61-3.8c-2.53-1-4.1-3.31-4.1-6.03,0-.14,.11-.25,.25-.25s.25,.11,.25,.25c0,2.51,1.45,4.65,3.79,5.57l9.61,3.8c.13,.05,.19,.2,.14,.32-.04,.1-.13,.16-.23,.16Z"></path>
        <path class="e" d="M148.84,270.29c-.43,0-.82-.26-.98-.66-.05-.13,.01-.27,.14-.32,.13-.05,.27,.01,.32,.14,.11,.28,.44,.42,.71,.31l44.68-17.66c2.33-.92,3.79-3.06,3.79-5.57,0-.14,.11-.25,.25-.25s.25,.11,.25,.25c0,2.72-1.57,5.03-4.1,6.03l-44.68,17.66c-.12,.05-.25,.07-.39,.07Z"></path>
        <g>
          <g>
            <polygon class="q" points="221.7 235.65 221.7 237.32 232.08 233.21 232.08 231.55 221.7 235.65"></polygon>
            <polygon class="n" points="208.67 230.5 208.67 232.17 221.7 237.32 221.7 235.65 208.67 230.5"></polygon>
            <polygon class="j" points="219.05 226.4 208.67 230.5 221.7 235.65 232.08 231.55 219.05 226.4"></polygon>
          </g>
          <g>
            <polygon class="q" points="199.62 202.47 199.62 202.47 199.62 232.89 199.62 238.51 240.4 222.39 240.4 186.35 199.62 202.47"></polygon>
            <polygon class="o" points="201.15 203.22 201.15 203.22 201.15 231.35 201.15 236.55 238.86 221.64 238.86 188.32 201.15 203.22"></polygon>
            <polygon class="j" points="197.17 201.51 199.62 202.47 240.4 186.35 237.95 185.39 197.17 201.51"></polygon>
            <polygon class="n" points="197.17 201.51 197.17 237.54 199.62 238.51 199.62 202.47 197.17 201.51"></polygon>
          </g>
        </g>
      </g>
      <polygon class="k" points="119.2 246.52 61.73 269.24 119.2 291.96 176.67 269.24 119.2 246.52"></polygon>
      <polygon class="g" points="119.2 291.96 119.2 291.96 119.2 303.74 119.2 303.74 176.67 281.02 176.67 269.24 119.2 291.96"></polygon>
      <polygon class="l" points="61.73 269.24 61.73 281.02 119.2 303.74 119.2 291.96 61.73 269.24"></polygon>
      <polygon class="j" points="119.2 227.12 61.73 249.84 119.2 272.56 176.67 249.84 119.2 227.12"></polygon>
      <polygon class="q" points="119.2 272.56 119.2 272.56 119.2 284.34 119.2 284.34 176.67 261.63 176.67 249.84 119.2 272.56"></polygon>
      <polygon class="j" points="119.2 206.56 61.73 229.28 119.2 252 176.67 229.28 119.2 206.56"></polygon>
      <polygon class="q" points="119.2 252 119.2 252 119.2 263.78 119.2 263.78 176.67 241.06 176.67 229.28 119.2 252"></polygon>
      <polygon class="n" points="61.73 229.28 61.73 241.06 119.2 263.78 119.2 252 61.73 229.28"></polygon>
      <path class="q" d="M104.92,219.73v8.66c0,2.39,5.85,5.21,13.07,5.21s13.07-2.81,13.07-5.21v-8.66h-26.15Z"></path>
      <ellipse class="n" cx="118" cy="219.76" rx="13.07" ry="5.38"></ellipse>
      <g>
        <g>
          <path class="p" d="M157.89,229.15l-.04-.06-.04-.06-.04-.06-.1-.11-.11-.11-.06-.05-.07-.05-.07-.05-.15-.1-.08-.05-.17-.1-.09-.05-.19-.1-.1-.05-.21-.1-.23-.09-.12-.04-.23-.08-.24-.08-.24-.07-.25-.07-.25-.06-.26-.06-.26-.05-.27-.04-.27-.04-.27-.03-.28-.03-.28-.02h-.28l-.29-.02h-.43l-.44,.02-.29,.02-.29,.03-.15,.02-.3,.04-.3,.04-.15,.02-.45,.08-.3,.07-.3,.07-.3,.08-.3,.09-.15,.05-.29,.1-.29,.11-.29,.11-5.05,1.51v.53l12.59,5.16,2.43-.98v-.53l-4.26-1.22h.01l2.73-1.11,.27-.12,.25-.12,.24-.12,.22-.12,.1-.06,.19-.12,.17-.12,.16-.12,.07-.06,.07-.06,.12-.12,.05-.06,.05-.06,.05-.06,.04-.06,.04-.06,.03-.06,.03-.06,.02-.06,.02-.06,.02-.06v-.06l.02-.06v-.65l-.13,.09v-.02Zm-3.11,.79v.06l-.03,.06-.03,.07-.04,.07-.05,.07-.06,.07-.07,.07-.08,.07-.09,.07-.1,.07-.11,.07-.12,.07-.13,.07-.14,.07-.15,.07-.17,.07-2.25,.91-4.58-1.87h.01l2.41-.98,.17-.06,.17-.06,.17-.05,.17-.05,.17-.04,.17-.04,.17-.04,.17-.03,.16-.03,.16-.02,.16-.02,.16-.02h.16l.16-.02h.62l.15,.02h.15l.15,.03,.14,.02,.14,.02,.14,.03,.14,.03,.27,.07,.13,.04,.13,.04,.13,.05,.13,.05,.12,.05,.12,.05,.11,.05,.1,.05,.09,.06,.08,.06,.08,.06,.07,.06,.06,.06,.05,.06,.04,.06,.04,.06,.03,.06,.02,.06v.13Z"></path>
          <polygon class="p" points="156.67 224.45 154.24 224.9 154.24 225.43 166.83 230.59 169.25 229.61 169.25 229.08 156.67 224.45"></polygon>
          <path class="p" d="M132.72,233.59v.53l7.84,7.08,2.6-1.05v-.53l-1.99-1.19h0l5.07-2.05,4.23,.82,2.59-1.05v-.53l-17.34-2.71-3.01,.68Zm4.14,.95l6.92,1.35h-.02l-3.76,1.53h0l-3.26-2.83,.12-.04Z"></path>
        </g>
        <g>
          <path class="q" d="M158.03,229.02v-.06l-.02-.06-.02-.06-.04-.11-.03-.06-.03-.06-.04-.06-.04-.06-.04-.06-.1-.11-.11-.11-.06-.05-.07-.05-.07-.05-.15-.1-.08-.05-.17-.1-.09-.05-.19-.1-.1-.05-.21-.1-.23-.09-.12-.04-.23-.08-.24-.08-.24-.07-.25-.07-.25-.06-.26-.06-.26-.05-.27-.04-.27-.04-.27-.03-.28-.03-.28-.02h-.28l-.29-.02h-.43l-.44,.02-.29,.02-.29,.03-.15,.02-.3,.04-.3,.04-.15,.02-.45,.08-.3,.07-.3,.07-.3,.08-.3,.09-.15,.05-.29,.1-.29,.11-.29,.11-5.05,2.04,12.59,5.16,2.43-.98-4.26-1.75h.01l2.73-1.11,.27-.12,.25-.12,.24-.12,.22-.12,.1-.06,.19-.12,.17-.12,.16-.12,.07-.06,.07-.06,.12-.12,.05-.06,.05-.06,.05-.06,.04-.06,.04-.06,.03-.06,.03-.06,.02-.06,.02-.06,.02-.06v-.06l.02-.06v-.17Zm-3.23,.39v.06l-.03,.06-.03,.07-.04,.07-.05,.07-.06,.07-.07,.07-.08,.07-.09,.07-.1,.07-.11,.07-.12,.07-.13,.07-.14,.07-.15,.07-.17,.07-2.25,.91-4.58-1.87h.01l2.41-.98,.17-.06,.17-.06,.17-.05,.17-.05,.17-.04,.17-.04,.17-.04,.17-.03,.16-.03,.16-.02,.16-.02,.16-.02h.16l.16-.02h.62l.15,.02h.15l.15,.03,.14,.02,.14,.02,.14,.03,.14,.03,.27,.07,.13,.04,.13,.04,.13,.05,.13,.05,.12,.05,.12,.05,.11,.05,.1,.05,.09,.06,.08,.06,.08,.06,.07,.06,.06,.06,.05,.06,.04,.06,.04,.06,.03,.06,.02,.06v.13Z"></path>
          <polygon class="q" points="154.24 224.9 166.83 230.06 169.25 229.08 156.67 223.91 154.24 224.9"></polygon>
          <path class="q" d="M135.72,232.38l-3.01,1.22,7.84,7.08,2.6-1.05-1.99-1.72h0l5.07-2.05,4.23,.82,2.59-1.05-17.34-3.24Zm8.03,2.99l-3.76,1.52h0l-3.26-2.83,.12-.04,6.92,1.35h-.02Z"></path>
        </g>
      </g>
      <g>
        <path class="o" d="M110.72,221.52c-.83,0-1.5-.67-1.5-1.5v-27.03c0-.83,.67-1.5,1.5-1.5s1.5,.67,1.5,1.5v27.03c0,.83-.67,1.5-1.5,1.5Z"></path>
        <path class="o" d="M115.55,221.52c-.83,0-1.5-.67-1.5-1.5v-27.03c0-.83,.67-1.5,1.5-1.5s1.5,.67,1.5,1.5v27.03c0,.83-.67,1.5-1.5,1.5Z"></path>
        <path class="o" d="M120.38,221.52c-.83,0-1.5-.67-1.5-1.5v-27.03c0-.83,.67-1.5,1.5-1.5s1.5,.67,1.5,1.5v27.03c0,.83-.67,1.5-1.5,1.5Z"></path>
        <path class="o" d="M125.2,221.52c-.83,0-1.5-.67-1.5-1.5v-27.03c0-.83,.67-1.5,1.5-1.5s1.5,.67,1.5,1.5v27.03c0,.83-.67,1.5-1.5,1.5Z"></path>
        <path class="e" d="M110.72,221.07c-.14,0-.25-.11-.25-.25s.11-.25,.25-.25c.3,0,.55-.25,.55-.55v-27.03c0-.3-.25-.55-.55-.55-.14,0-.25-.11-.25-.25s.11-.25,.25-.25c.58,0,1.05,.47,1.05,1.05v27.03c0,.58-.47,1.05-1.05,1.05Z"></path>
        <path class="e" d="M115.55,221.07c-.14,0-.25-.11-.25-.25s.11-.25,.25-.25c.3,0,.55-.25,.55-.55v-27.03c0-.3-.25-.55-.55-.55-.14,0-.25-.11-.25-.25s.11-.25,.25-.25c.58,0,1.05,.47,1.05,1.05v27.03c0,.58-.47,1.05-1.05,1.05Z"></path>
        <path class="e" d="M120.38,221.07c-.14,0-.25-.11-.25-.25s.11-.25,.25-.25c.3,0,.55-.25,.55-.55v-27.03c0-.3-.25-.55-.55-.55-.14,0-.25-.11-.25-.25s.11-.25,.25-.25c.58,0,1.05,.47,1.05,1.05v27.03c0,.58-.47,1.05-1.05,1.05Z"></path>
        <path class="e" d="M125.2,221.07c-.14,0-.25-.11-.25-.25s.11-.25,.25-.25c.3,0,.55-.25,.55-.55v-27.03c0-.3-.25-.55-.55-.55-.14,0-.25-.11-.25-.25s.11-.25,.25-.25c.58,0,1.05,.47,1.05,1.05v27.03c0,.58-.47,1.05-1.05,1.05Z"></path>
        <path class="q" d="M104.92,186.66v6.87c0,1.9,5.85,3.44,13.07,3.44s13.07-1.54,13.07-3.44v-6.87h-26.15Z"></path>
        <ellipse class="n" cx="118" cy="186.66" rx="13.07" ry="3.44"></ellipse>
        <path class="j" d="M160.08,140.78c0-5.04-18.78-9.12-41.96-9.12s-41.96,4.08-41.96,9.12c0,3.9,33.75,45.87,33.82,45.97,.65,.85,4.04,1.49,8.13,1.49s7.48-.65,8.13-1.5c.07-.09,33.84-42.04,33.84-45.97Z"></path>
        <ellipse class="q" cx="118" cy="121.86" rx="40.4" ry="7.75"></ellipse>
        <path class="j" d="M118,112.74c-23.17,0-41.96,4.08-41.96,9.12s18.78,9.12,41.96,9.12,41.96-4.08,41.96-9.12-18.78-9.12-41.96-9.12Zm0,16.87c-22.31,0-40.4-3.47-40.4-7.75s18.09-7.75,40.4-7.75,40.4,3.47,40.4,7.75-18.09,7.75-40.4,7.75Z"></path>
        <polygon class="h" points="137.54 143.11 136.24 143.11 136.24 81.96 163.91 81.96 163.91 55.87 165.21 55.87 165.21 83.26 137.54 83.26 137.54 143.11"></polygon>
        <polygon class="o" points="142.2 143.11 140.9 143.11 140.9 86.32 168.57 86.32 168.57 55.87 169.87 55.87 169.87 87.62 142.2 87.62 142.2 143.11"></polygon>
        <polygon class="m" points="146.85 143.11 145.55 143.11 145.55 90.67 173.22 90.67 173.22 55.87 174.52 55.87 174.52 91.97 146.85 91.97 146.85 143.11"></polygon>
        <polygon class="h" points="151.51 143.11 150.2 143.11 150.2 95.03 177.87 95.03 177.87 70.48 179.18 70.48 179.18 96.33 151.51 96.33 151.51 143.11"></polygon>
        <polygon class="o" points="156.16 143.11 154.86 143.11 154.86 99.39 182.53 99.39 182.53 22.72 183.83 22.72 183.83 100.69 156.16 100.69 156.16 143.11"></polygon>
        <polygon class="h" points="91.01 144.09 89.71 144.09 89.71 93.87 73.89 93.87 73.89 77.71 75.19 77.71 75.19 92.57 91.01 92.57 91.01 144.09"></polygon>
        <polygon class="o" points="86.35 144.09 85.05 144.09 85.05 98.46 69.24 98.46 69.24 63.25 70.54 63.25 70.54 97.16 86.35 97.16 86.35 144.09"></polygon>
        <polygon class="m" points="81.7 144.09 80.4 144.09 80.4 102.82 64.58 102.82 64.58 63.25 65.88 63.25 65.88 101.52 81.7 101.52 81.7 144.09"></polygon>
        <rect class="o" x="131.59" y="55.87" width="1.3" height="87.24"></rect>
        <rect class="m" x="126.94" y="46.23" width="1.3" height="96.88"></rect>
        <rect class="o" x="122.28" y="73.82" width="1.3" height="69.29"></rect>
        <rect class="h" x="117.63" y="47.16" width="1.3" height="95.95"></rect>
        <rect class="o" x="112.98" y="15.52" width="1.3" height="127.59"></rect>
        <path class="h" d="M95.66,142.98h-1.3v-51.33c0-4.6-1.79-8.92-5.04-12.17l-7.58-7.58c-3.5-3.5-5.42-8.15-5.42-13.09V31.04h1.3v27.76c0,4.6,1.79,8.92,5.04,12.17l7.58,7.58c3.5,3.5,5.42,8.15,5.42,13.09v51.33Z"></path>
        <path class="o" d="M100.31,144.11h-1.3v-54.81c0-4.6-1.79-8.92-5.04-12.17l-7.58-7.58c-3.5-3.5-5.42-8.15-5.42-13.09v-12.57h1.3v12.57c0,4.6,1.79,8.92,5.04,12.17l7.58,7.58c3.5,3.5,5.42,8.15,5.42,13.09v54.81Z"></path>
        <path class="o" d="M104.97,144.11h-1.3v-57.24c0-4.6-1.79-8.92-5.04-12.17l-7.58-7.58c-3.5-3.5-5.42-8.14-5.42-13.09V4.53h1.3V54.03c0,4.6,1.79,8.92,5.04,12.17l7.58,7.58c3.5,3.5,5.42,8.14,5.42,13.09v57.24Z"></path>
        <path class="m" d="M109.62,141.81h-1.3v-57.24c0-4.6-1.79-8.92-5.04-12.17l-7.58-7.58c-3.5-3.5-5.42-8.15-5.42-13.09v-10.04h1.3v10.04c0,4.6,1.79,8.92,5.04,12.17l7.58,7.58c3.5,3.5,5.42,8.15,5.42,13.09v57.24Z"></path>
        <path class="f" d="M118,130.98c-23.17,0-41.95-4.08-41.96-9.12v18.22c0,5.04,18.78,9.12,41.96,9.12s41.96-4.08,41.96-9.12v-18.22c0,5.04-18.78,9.12-41.96,9.12Z"></path>
        <path class="j" d="M157.15,123.77c-4.45,3.35-20.29,5.83-39.15,5.83s-34.7-2.48-39.15-5.83h-1.86c4.05,4.12,20.87,7.2,41.02,7.2s36.97-3.09,41.02-7.2h-1.86Z"></path>
        <rect class="h" x="149.95" y="20.39" width="1.3" height="58.21"></rect>
        <rect class="o" x="145.3" y="54.54" width="1.3" height="24.06"></rect>
        <rect class="o" x="140.65" width="1.3" height="78.6"></rect>
        <rect class="m" x="136.24" y="43.77" width="1.3" height="34.83"></rect>
        <path class="i" d="M175.81,53.9h-13.18c-2.45,0-4.44-1.99-4.44-4.44s1.99-4.44,4.44-4.44c1.56,0,3.03,.83,3.82,2.18l-1.12,.66c-.56-.95-1.6-1.54-2.71-1.54-1.73,0-3.14,1.41-3.14,3.14s1.41,3.14,3.14,3.14h13.18c1.73,0,3.14-1.41,3.14-3.14,0-1.33-.84-2.52-2.09-2.96l-.71-.25,.35-.66c.15-.29,.23-.61,.23-.94,0-1.12-.91-2.03-2.03-2.03-.52,0-1.02,.2-1.4,.56l-.5,.48-.45-.52c-.75-.89-1.85-1.4-3.01-1.4-1.76,0-3.32,1.18-3.8,2.87l-1.25-.36c.64-2.24,2.71-3.81,5.05-3.81,1.33,0,2.6,.5,3.57,1.4,.53-.34,1.15-.52,1.79-.52,1.84,0,3.33,1.49,3.33,3.33,0,.3-.04,.61-.12,.9,1.43,.76,2.35,2.27,2.35,3.92,0,2.45-1.99,4.44-4.44,4.44Z"></path>
        <path class="o" d="M120.21,13.52h-13.18c-2.45,0-4.44-1.99-4.44-4.44s1.99-4.44,4.44-4.44c1.56,0,3.02,.83,3.82,2.18l-1.12,.66c-.56-.95-1.6-1.54-2.71-1.54-1.73,0-3.14,1.41-3.14,3.14s1.41,3.14,3.14,3.14h13.18c1.73,0,3.14-1.41,3.14-3.14,0-1.33-.84-2.52-2.09-2.96l-.7-.25,.35-.66c.15-.29,.23-.61,.23-.94,0-1.12-.91-2.03-2.03-2.03-.52,0-1.02,.2-1.4,.56l-.5,.48-.45-.53c-.75-.89-1.85-1.4-3.01-1.4-1.76,0-3.32,1.18-3.8,2.87l-1.25-.35c.64-2.24,2.71-3.81,5.05-3.81,1.33,0,2.6,.5,3.57,1.4,.53-.34,1.15-.52,1.79-.52,1.84,0,3.33,1.5,3.33,3.33,0,.31-.04,.61-.12,.9,1.43,.76,2.34,2.27,2.34,3.92,0,2.45-1.99,4.44-4.44,4.44Z"></path>
        <path class="m" d="M68.88,60.04h-13.18c-2.45,0-4.44-1.99-4.44-4.44s1.99-4.44,4.44-4.44c1.56,0,3.02,.83,3.82,2.18l-1.12,.66c-.56-.95-1.6-1.54-2.7-1.54-1.73,0-3.14,1.41-3.14,3.14s1.41,3.14,3.14,3.14h13.18c1.73,0,3.14-1.41,3.14-3.14,0-1.33-.84-2.52-2.09-2.96l-.7-.25,.35-.66c.15-.29,.23-.61,.23-.94,0-1.12-.91-2.03-2.03-2.03-.52,0-1.02,.2-1.4,.56l-.5,.48-.45-.53c-.75-.89-1.85-1.39-3.01-1.39-1.76,0-3.32,1.18-3.8,2.87l-1.25-.35c.64-2.24,2.71-3.81,5.05-3.81,1.33,0,2.6,.5,3.57,1.4,.53-.34,1.15-.52,1.79-.52,1.84,0,3.33,1.5,3.33,3.33,0,.31-.04,.61-.12,.9,1.43,.76,2.34,2.27,2.34,3.92,0,2.45-1.99,4.44-4.44,4.44Z"></path>
        <path class="m" d="M127.59,38.27c-1.66,0-3.01-1.35-3.01-3.01s1.35-3.01,3.01-3.01,3.01,1.35,3.01,3.01-1.35,3.01-3.01,3.01Zm0-4.72c-.94,0-1.71,.77-1.71,1.71s.77,1.71,1.71,1.71,1.71-.77,1.71-1.71-.77-1.71-1.71-1.71Z"></path>
        <rect class="m" x="126.94" y="26.26" width="1.3" height="4.83"></rect>
        <rect class="m" x="131.75" y="34.61" width="4.83" height="1.3"></rect>
        <rect class="m" x="126.94" y="39.43" width="1.3" height="4.83"></rect>
        <rect class="m" x="118.59" y="34.61" width="4.83" height="1.3"></rect>
        <rect class="m" x="122.28" y="28.19" width="1.3" height="4.83" transform="translate(14.37 95.9) rotate(-45)"></rect>
        <rect class="m" x="129.83" y="29.96" width="4.83" height="1.3" transform="translate(17.09 102.47) rotate(-45)"></rect>
        <rect class="m" x="131.59" y="37.5" width="1.3" height="4.83" transform="translate(10.5 105.19) rotate(-45)"></rect>
        <rect class="m" x="120.51" y="39.27" width="4.83" height="1.3" transform="translate(7.78 98.62) rotate(-45)"></rect>
        <rect class="h" x="149.84" y="11.39" width="1.3" height="7.25" transform="translate(33.46 110.81) rotate(-45)"></rect>
        <rect class="h" x="146.87" y="14.37" width="7.25" height="1.3" transform="translate(33.51 110.88) rotate(-45.03)"></rect>
        <rect class="h" x="149.84" y="11.15" width="1.3" height="1.49"></rect>
        <rect class="h" x="152.88" y="14.26" width="1.49" height="1.3"></rect>
        <rect class="h" x="149.95" y="17.29" width="1.3" height="1.49"></rect>
        <rect class="h" x="146.73" y="14.37" width="1.49" height="1.3"></rect>
        <rect class="o" x="105.53" y="59.68" width="1.3" height="7.25" transform="translate(-13.66 93.62) rotate(-45)"></rect>
        <rect class="o" x="102.55" y="62.65" width="7.25" height="1.3" transform="translate(-13.66 93.62) rotate(-45)"></rect>
        <rect class="o" x="105.53" y="59.43" width="1.3" height="1.49"></rect>
        <rect class="o" x="108.56" y="62.54" width="1.49" height="1.3"></rect>
        <rect class="o" x="105.63" y="65.58" width="1.3" height="1.49"></rect>
        <rect class="o" x="102.41" y="62.65" width="1.49" height="1.3"></rect>
        <rect class="o" x="98.96" y="49.68" width="1.3" height="7.25" transform="translate(-8.52 86.05) rotate(-45)"></rect>
        <rect class="o" x="95.99" y="52.65" width="7.25" height="1.3" transform="translate(-8.52 86.05) rotate(-45)"></rect>
        <rect class="o" x="98.96" y="49.43" width="1.3" height="1.49"></rect>
        <rect class="o" x="101.99" y="52.54" width="1.49" height="1.3"></rect>
        <rect class="o" x="99.07" y="55.58" width="1.3" height="1.49"></rect>
        <rect class="o" x="95.85" y="52.65" width="1.49" height="1.3"></rect>
        <rect class="o" x="157.1" y="70.25" width="1.3" height="7.25" transform="translate(-6.03 133.19) rotate(-45)"></rect>
        <rect class="o" x="154.12" y="73.23" width="7.25" height="1.3" transform="translate(-6 133.27) rotate(-45.03)"></rect>
        <rect class="o" x="157.1" y="70" width="1.3" height="1.49"></rect>
        <rect class="o" x="160.13" y="73.12" width="1.49" height="1.3"></rect>
        <rect class="o" x="157.2" y="76.15" width="1.3" height="1.49"></rect>
        <rect class="o" x="153.98" y="73.23" width="1.49" height="1.3"></rect>
        <polygon class="m" points="61.8 70.78 58.67 67.04 60.49 65.52 57.36 61.78 58.35 60.95 62.32 65.69 60.5 67.21 62.79 69.94 61.8 70.78"></polygon>
        <polygon class="o" points="124.65 68.84 121.53 65.11 123.34 63.59 120.21 59.85 121.21 59.01 125.17 63.75 123.36 65.27 125.65 68 124.65 68.84"></polygon>
        <path class="o" d="M118.59,23.37c-1.32,0-2.4-1.08-2.4-2.4,0-2.41,1.82-4.65,1.9-4.75l.5-.61,.5,.61c.08,.09,1.9,2.34,1.9,4.75,0,1.32-1.08,2.4-2.4,2.4Zm0-5.6c-.47,.75-1.1,1.98-1.1,3.2,0,.6,.49,1.1,1.1,1.1s1.1-.49,1.1-1.1c0-1.23-.63-2.46-1.1-3.2Z"></path>
        <path class="o" d="M145.95,49.92c-1.32,0-2.4-1.08-2.4-2.4,0-2.41,1.82-4.65,1.9-4.75l.5-.61,.5,.61c.08,.09,1.9,2.34,1.9,4.75,0,1.32-1.08,2.4-2.4,2.4Zm0-5.6c-.47,.75-1.1,1.98-1.1,3.2,0,.61,.49,1.1,1.1,1.1s1.1-.49,1.1-1.1c0-1.22-.63-2.45-1.1-3.2Z"></path>
        <path class="o" d="M81.62,39.64c-1.32,0-2.4-1.08-2.4-2.4,0-2.41,1.82-4.65,1.9-4.75l.5-.61,.5,.61c.08,.09,1.9,2.34,1.9,4.75,0,1.32-1.08,2.4-2.4,2.4Zm0-5.6c-.47,.75-1.1,1.98-1.1,3.2,0,.61,.49,1.1,1.1,1.1s1.1-.49,1.1-1.1c0-1.23-.63-2.46-1.1-3.2Z"></path>
        <path class="h" d="M81.05,89.45c-1.32,0-2.4-1.08-2.4-2.4,0-2.41,1.82-4.65,1.9-4.75l.5-.61,.5,.61c.08,.09,1.9,2.34,1.9,4.75,0,1.32-1.08,2.4-2.4,2.4Zm0-5.6c-.47,.75-1.1,1.98-1.1,3.2,0,.61,.49,1.1,1.1,1.1s1.1-.49,1.1-1.1c0-1.23-.63-2.46-1.1-3.2Z"></path>
        <path class="d" d="M79.34,143.63l31.38,42.59s.31,.39,1.2,.55,1.6,.21,1.6,.21l-17.14-39.06s-4-.47-8.68-1.53-8.36-2.76-8.36-2.76Z"></path>
        <path class="j" d="M79.34,143.63l-.23-17.82s4.59,2.99,17.27,4.2v17.9s-9.97-.92-17.05-4.29Z"></path>
      </g>
      <g>
        <path class="e" d="M92.27,290.63c-1.46,0-2.65-1.19-2.65-2.65s1.19-2.65,2.65-2.65,2.65,1.19,2.65,2.65-1.19,2.65-2.65,2.65Zm0-3.3c-.36,0-.65,.29-.65,.65s.29,.65,.65,.65,.65-.29,.65-.65-.29-.65-.65-.65Z"></path>
        <path class="e" d="M83.35,286.77c-1.46,0-2.65-1.19-2.65-2.65s1.19-2.65,2.65-2.65,2.65,1.19,2.65,2.65-1.19,2.65-2.65,2.65Zm0-3.3c-.36,0-.65,.29-.65,.65s.29,.65,.65,.65,.65-.29,.65-.65-.29-.65-.65-.65Z"></path>
        <path class="o" d="M36.24,304.88c-.59,0-1.15-.35-1.39-.93-.31-.77,.06-1.64,.82-1.96l47.11-19.16c.77-.31,1.64,.06,1.96,.82,.31,.77-.06,1.64-.82,1.96l-47.11,19.16c-.19,.08-.38,.11-.56,.11Z"></path>
        <path class="o" d="M74.11,296.04c-1.76,0-3.53-.33-5.21-.99l-4.74-1.85c-.77-.3-1.15-1.17-.85-1.94,.3-.77,1.17-1.15,1.94-.85l4.74,1.85c2.71,1.06,5.68,1.04,8.37-.06l13.27-5.4c.77-.31,1.64,.06,1.95,.82,.31,.77-.06,1.64-.82,1.96l-13.27,5.4c-1.73,.71-3.56,1.06-5.39,1.06Z"></path>
        <path class="e" d="M68.43,291.4c-.1,0-.19-.06-.23-.16-.05-.13,0-.27,.14-.33l15.22-6.19c.28-.11,.42-.44,.3-.72-.05-.13,0-.27,.14-.33,.13-.05,.27,0,.33,.14,.22,.54-.04,1.15-.58,1.37l-15.22,6.19s-.06,.02-.09,.02Z"></path>
        <path class="e" d="M36.24,304.43c-.43,0-.81-.26-.97-.65-.05-.13,0-.27,.14-.33,.13-.05,.27,0,.33,.14,.11,.27,.44,.41,.72,.3l28.17-11.46c.06-.03,.12-.02,.19,0l4.45,1.73c3.18,1.24,6.73,1.22,9.89-.07l13.25-5.3c.28-.11,.42-.44,.3-.72-.05-.13,0-.27,.14-.33,.13-.05,.27,0,.33,.14,.22,.54-.04,1.15-.58,1.37l-13.25,5.3c-3.28,1.33-6.96,1.36-10.26,.07l-4.35-1.7-28.08,11.42c-.13,.05-.26,.08-.4,.08Z"></path>
        <g>
          <g>
            <polygon class="q" points="24.52 324.94 24.52 326.61 34.9 322.5 34.9 320.83 24.52 324.94"></polygon>
            <polygon class="n" points="11.5 319.79 11.5 321.46 24.52 326.61 24.52 324.94 11.5 319.79"></polygon>
            <polygon class="j" points="21.87 315.68 11.5 319.79 24.52 324.94 34.9 320.83 21.87 315.68"></polygon>
          </g>
          <g>
            <polygon class="q" points="2.45 291.76 2.45 291.76 2.45 322.18 2.45 327.8 43.22 311.68 43.22 275.64 2.45 291.76"></polygon>
            <polygon class="o" points="3.98 292.51 3.98 292.51 3.98 320.64 3.98 325.83 41.69 310.93 41.69 277.6 3.98 292.51"></polygon>
            <polygon class="j" points="0 290.79 2.45 291.76 43.22 275.64 40.78 274.67 0 290.79"></polygon>
            <polygon class="n" points="0 290.79 0 326.83 2.45 327.8 2.45 291.76 0 290.79"></polygon>
          </g>
        </g>
      </g>
      <g>
        <path class="e" d="M142.07,292.14c-1.46,0-2.65-1.19-2.65-2.65s1.19-2.65,2.65-2.65,2.65,1.19,2.65,2.65-1.19,2.65-2.65,2.65Zm0-3.3c-.36,0-.65,.29-.65,.65s.29,.65,.65,.65,.65-.29,.65-.65-.29-.65-.65-.65Z"></path>
        <path class="o" d="M121,328.14c-.6,0-1.16-.36-1.4-.95-.3-.77,.07-1.64,.84-1.95l19.38-7.66c7.12-2.81,14.95-2.81,22.07,0,6.4,2.53,13.46,2.53,19.86,0l13.06-5.16s.15-.06,.15-.21-.1-.2-.15-.21l-53.4-21.11c-.77-.3-1.15-1.18-.84-1.95,.3-.77,1.17-1.15,1.95-.84l53.4,21.11c1.24,.49,2.04,1.67,2.04,3s-.8,2.51-2.04,3l-13.06,5.16c-7.12,2.81-14.96,2.81-22.07,0-6.4-2.53-13.46-2.53-19.86,0l-19.38,7.66c-.18,.07-.37,.11-.55,.11Z"></path>
        <path class="e" d="M121,327.69c-.43,0-.82-.26-.98-.66-.21-.54,.05-1.15,.59-1.36,.13-.05,.27,.01,.32,.14s-.01,.27-.14,.32c-.14,.05-.24,.16-.3,.29-.06,.13-.06,.28,0,.42,.11,.28,.45,.42,.71,.31l19.38-7.66c6.63-2.62,13.93-2.62,20.56,0,6.89,2.72,14.48,2.72,21.37,0l13.06-5.16c.88-.35,1.44-1.18,1.44-2.12,0-.14,.11-.25,.25-.25s.25,.11,.25,.25c0,1.15-.69,2.16-1.76,2.59l-13.06,5.16c-7.01,2.77-14.73,2.77-21.74,0-6.51-2.57-13.68-2.57-20.19,0l-19.38,7.66c-.12,.05-.25,.07-.39,.07Z"></path>
        <path class="e" d="M195.08,311.59s-.06,0-.09-.02l-53.4-21.11c-.54-.21-.8-.82-.59-1.36,.05-.13,.19-.19,.32-.14,.13,.05,.19,.2,.14,.32-.11,.28,.03,.6,.31,.71l53.4,21.11c.13,.05,.19,.2,.14,.32-.04,.1-.13,.16-.23,.16Z"></path>
        <g>
          <g>
            <polygon class="q" points="115.94 345.31 115.94 346.97 126.32 342.87 126.32 341.2 115.94 345.31"></polygon>
            <polygon class="n" points="102.91 340.16 102.91 341.82 115.94 346.97 115.94 345.31 102.91 340.16"></polygon>
            <polygon class="j" points="113.29 336.05 102.91 340.16 115.94 345.31 126.32 341.2 113.29 336.05"></polygon>
          </g>
          <g>
            <polygon class="q" points="93.86 312.13 93.86 312.13 93.86 342.55 93.86 348.17 134.64 332.05 134.64 296.01 93.86 312.13"></polygon>
            <polygon class="o" points="95.39 312.88 95.39 312.88 95.39 341.01 95.39 346.2 133.1 331.3 133.1 297.97 95.39 312.88"></polygon>
            <polygon class="j" points="91.41 311.16 93.86 312.13 134.64 296.01 132.19 295.04 91.41 311.16"></polygon>
            <polygon class="n" points="91.41 311.16 91.41 347.2 93.86 348.17 93.86 312.13 91.41 311.16"></polygon>
          </g>
        </g>
      </g>
      <g>
        <path class="e" d="M151.05,288.33c-1.46,0-2.65-1.19-2.65-2.65s1.19-2.65,2.65-2.65,2.65,1.19,2.65,2.65-1.19,2.65-2.65,2.65Zm0-3.3c-.36,0-.65,.29-.65,.65s.29,.65,.65,.65,.65-.29,.65-.65-.29-.65-.65-.65Z"></path>
        <path class="e" d="M159.24,285.01c-1.46,0-2.65-1.19-2.65-2.65s1.19-2.65,2.65-2.65,2.65,1.19,2.65,2.65-1.19,2.65-2.65,2.65Zm0-3.3c-.36,0-.65,.29-.65,.65s.29,.65,.65,.65,.65-.29,.65-.65-.29-.65-.65-.65Z"></path>
        <path class="o" d="M178.37,298.05c-.6,0-1.17-.36-1.4-.96-.3-.77,.08-1.64,.86-1.94l2.6-1.01c.55-.21,.61-.69,.61-.89,0-.2-.06-.68-.61-.9l-21.75-8.6c-.77-.3-1.15-1.18-.84-1.95,.3-.77,1.17-1.15,1.95-.84l21.75,8.6c1.53,.6,2.51,2.05,2.5,3.7,0,1.64-1,3.08-2.53,3.68l-2.6,1.01c-.18,.07-.36,.1-.54,.1Z"></path>
        <path class="o" d="M197.49,303.43c-3.8,0-7.59-.71-11.2-2.14l-35.79-14.15c-.77-.3-1.15-1.18-.84-1.95,.3-.77,1.17-1.15,1.95-.84l35.79,14.15c6.51,2.57,13.69,2.57,20.2,0l24.1-9.53c.77-.31,1.64,.07,1.95,.84,.3,.77-.07,1.64-.84,1.95l-24.1,9.53c-3.61,1.43-7.41,2.14-11.2,2.14Z"></path>
        <path class="e" d="M180.7,291.96s-.06,0-.09-.02l-21.75-8.6c-.26-.1-.47-.3-.58-.56-.11-.26-.12-.54-.01-.8,.05-.13,.19-.19,.32-.14,.13,.05,.19,.2,.14,.32-.11,.28,.03,.6,.31,.71l21.75,8.6c.13,.05,.19,.2,.14,.32-.04,.1-.13,.16-.23,.16Z"></path>
        <path class="e" d="M181.27,296.54c-.1,0-.19-.06-.23-.16-.05-.13,.01-.27,.14-.32,1.16-.45,1.92-1.55,1.92-2.8,0-.14,.11-.25,.25-.25h0c.14,0,.25,.11,.25,.25,0,1.46-.88,2.73-2.24,3.26-.03,.01-.06,.02-.09,.02Z"></path>
        <path class="e" d="M197.49,302.98c-3.78,0-7.5-.71-11.04-2.11l-35.79-14.15c-.54-.21-.8-.82-.59-1.36,.05-.13,.2-.19,.32-.14,.13,.05,.19,.2,.14,.32-.11,.28,.03,.6,.31,.71l35.79,14.15c3.48,1.38,7.14,2.08,10.85,2.08s7.37-.7,10.85-2.08l24.1-9.53c.14-.05,.24-.16,.3-.29s.06-.28,0-.42c-.11-.28-.43-.42-.71-.31-.13,.05-.27-.01-.32-.14-.05-.13,.01-.27,.14-.32,.54-.21,1.15,.05,1.36,.59,.1,.26,.1,.55-.01,.8-.11,.26-.32,.46-.58,.56l-24.1,9.53c-3.54,1.4-7.25,2.11-11.04,2.11Z"></path>
        <g>
          <g>
            <polygon class="q" points="238.55 308.05 238.55 309.71 248.93 305.61 248.93 303.94 238.55 308.05"></polygon>
            <polygon class="n" points="225.52 302.9 225.52 304.56 238.55 309.71 238.55 308.05 225.52 302.9"></polygon>
            <polygon class="j" points="235.9 298.79 225.52 302.9 238.55 308.05 248.93 303.94 235.9 298.79"></polygon>
          </g>
          <g>
            <polygon class="q" points="216.47 274.87 216.47 274.87 216.47 305.29 216.47 310.91 257.24 294.79 257.24 258.75 216.47 274.87"></polygon>
            <polygon class="o" points="218 275.62 218 275.62 218 303.75 218 308.94 255.71 294.04 255.71 260.71 218 275.62"></polygon>
            <polygon class="j" points="214.02 273.9 216.47 274.87 257.24 258.75 254.8 257.78 214.02 273.9"></polygon>
            <polygon class="n" points="214.02 273.9 214.02 309.94 216.47 310.91 216.47 274.87 214.02 273.9"></polygon>
          </g>
        </g>
      </g>
      <polygon class="n" points="61.73 249.84 61.73 261.63 119.2 284.34 119.2 272.56 61.73 249.84"></polygon>
      <g>
        <path class="k" d="M238.12,295.3c-2.57,.77-5.01,.41-6.84-1.03-1.84-1.43-2.87-3.76-2.9-6.55s.95-5.73,2.75-8.25c1.8-2.52,4.21-4.34,6.78-5.11,2.57-.77,5-.41,6.84,1.03,1.84,1.43,2.87,3.76,2.9,6.56s-.95,5.72-2.75,8.25c-1.8,2.52-4.21,4.34-6.78,5.11m-.21-21.4c-1.36,.41-2.67,1.09-3.91,2.03-1.19,.91-2.26,2.02-3.17,3.3-.92,1.28-1.63,2.67-2.12,4.12-.51,1.51-.76,3.02-.75,4.49s.3,2.82,.83,4.02c.52,1.15,1.25,2.1,2.19,2.83,.93,.73,2.02,1.19,3.22,1.38,1.25,.2,2.57,.09,3.93-.31s2.67-1.09,3.91-2.03c1.19-.91,2.26-2.02,3.17-3.3,.92-1.28,1.63-2.67,2.12-4.12,.51-1.51,.76-3.02,.75-4.49s-.3-2.83-.83-4.02c-.52-1.15-1.25-2.1-2.19-2.83-.93-.73-2.02-1.19-3.22-1.38-1.25-.2-2.57-.09-3.92,.31"></path>
        <path class="k" d="M244.95,287.42c-.63,.19-.96,.49-1.25,.75-.28,.26-.52,.48-1.04,.63s-.76,.08-1.05,0c-.29-.09-.63-.19-1.26,0s-.96,.49-1.25,.75c-.28,.26-.52,.48-1.04,.63s-.76,.08-1.05,0c-.29-.09-.63-.19-1.25,0s-.96,.49-1.25,.75c-.28,.26-.52,.48-1.04,.63s-.77,.08-1.05,0c-.29-.09-.62-.19-1.25,0v.46c.52-.15,.77-.08,1.05,0,.29,.09,.63,.19,1.26,0s.96-.49,1.25-.75c.28-.25,.52-.48,1.04-.63s.76-.08,1.05,0c.29,.09,.63,.19,1.25,0s.96-.49,1.25-.75c.28-.25,.52-.48,1.04-.63s.77-.08,1.05,0c.29,.09,.63,.19,1.25,0s.96-.49,1.25-.75c.28-.25,.52-.48,1.04-.63v-.46"></path>
        <path class="k" d="M240.38,290.85c-.63,.19-.96,.49-1.25,.75-.28,.25-.52,.48-1.04,.63s-.76,.08-1.05,0c-.29-.09-.63-.19-1.25,0s-.96,.49-1.25,.75c-.28,.25-.52,.48-1.04,.63v.46c.63-.19,.96-.49,1.25-.75,.28-.25,.52-.48,1.04-.63s.76-.08,1.05,0c.29,.09,.63,.19,1.25,0s.96-.49,1.25-.75c.28-.25,.52-.48,1.04-.63s.77-.08,1.05,0c.29,.09,.63,.19,1.25,0v-.46c-.52,.15-.77,.08-1.05,0-.29-.09-.63-.19-1.26,0"></path>
        <polyline class="k" points="237.99 282.19 232.9 285.03 234.45 290.41 234.86 290.16 233.43 285.21 237.79 282.78 237.85 289.65 238.28 289.52 238.21 282.66 242.59 282.46 241.27 288.24 241.68 288.24 243.11 281.97 237.99 282.19"></polyline>
        <polyline class="k" points="239.22 277.46 236.68 278.22 236.69 279.43 233.57 280.36 233.59 282.63 235.18 282.15 235.19 283.12 235.61 282.99 235.6 281.57 234.01 282.04 233.99 280.69 237.12 279.76 237.1 278.56 238.8 278.05 238.81 279.25 241.94 278.31 241.95 279.66 240.36 280.14 240.37 281.56 240.8 281.44 240.79 280.47 242.37 279.99 242.35 277.73 239.23 278.66 239.22 277.46"></polyline>
      </g>
      <g>
        <path class="k" d="M23.97,312.11c-2.49,.91-4.91,.69-6.8-.62-1.9-1.31-3.04-3.54-3.23-6.3s.61-5.7,2.24-8.29,3.9-4.51,6.39-5.42,4.91-.69,6.81,.62c1.9,1.31,3.04,3.54,3.23,6.3,.19,2.76-.61,5.7-2.24,8.29-1.63,2.59-3.9,4.51-6.39,5.42m-1.44-21.08c-1.31,.48-2.57,1.23-3.73,2.23-1.12,.97-2.11,2.12-2.94,3.43-.83,1.32-1.45,2.72-1.85,4.18-.42,1.51-.58,3.02-.48,4.47s.45,2.77,1.05,3.91c.58,1.1,1.36,2,2.32,2.66,.96,.66,2.06,1.06,3.25,1.18,1.24,.12,2.53-.06,3.85-.54s2.57-1.23,3.74-2.23c1.12-.97,2.11-2.12,2.94-3.43,.83-1.32,1.45-2.72,1.85-4.18,.42-1.51,.58-3.02,.48-4.47s-.45-2.77-1.05-3.91c-.58-1.11-1.36-2-2.32-2.66-.96-.66-2.06-1.06-3.25-1.18-1.24-.12-2.53,.06-3.85,.54"></path>
        <polyline class="k" points="18.39 298.55 18.38 299.01 21.41 298.24 21.34 301.67 21.75 301.57 21.83 297.68 18.39 298.55"></polyline>
        <path class="k" d="M26.29,300.12s-.06,.01-.08,0c-.04,0-.06-.04-.07-.08l-.53-1.86,.14-.08,2.02-1.24,.53,1.86s0,.08-.01,.13c-.02,.05-.05,.08-.09,.1l-1.86,1.15s-.02,.01-.03,.02m-1.22-2.09l-.15-.51,3-1.84,.15,.51-.03,.02-.9,.55-2.07,1.27m1.94-3.86l-.39,.24,.39,1.35-1.39,.85-.39-1.35-.39,.24,.39,1.36-.81,.49,.38,1.33,.43-.26,.53,1.87c.04,.15,.14,.25,.27,.3,.1,.03,.2,.03,.31-.01,.04-.01,.08-.03,.12-.06l.78-.48c.33,2.06-.83,4.51-2.71,5.68-.28,.17-.56,.31-.84,.41-.73,.27-1.46,.3-2.12,.08-.92-.3-1.58-1.03-1.88-2.07-.44-1.51,.02-3.43,1.15-4.88l-.27-.27c-1.26,1.6-1.76,3.71-1.27,5.39,.33,1.14,1.07,1.96,2.08,2.29,.73,.24,1.54,.2,2.35-.09,.31-.11,.62-.27,.93-.45,2.1-1.3,3.38-4.04,2.99-6.33l.69-.42c.14-.09,.26-.23,.33-.4,.07-.17,.09-.34,.05-.49l-.53-1.87,.43-.26-.38-1.33-.81,.49-.39-1.35"></path>
      </g>
      <g>
        <path class="k" d="M114.98,332.74c-2.56,.79-4.99,.44-6.84-.97-1.85-1.42-2.89-3.73-2.94-6.52s.9-5.72,2.68-8.26c1.78-2.53,4.17-4.36,6.73-5.15s4.99-.44,6.84,.97c1.85,1.42,2.89,3.73,2.94,6.52s-.9,5.72-2.68,8.26c-1.78,2.53-4.17,4.36-6.73,5.15m-.38-21.36c-1.35,.42-2.66,1.11-3.88,2.06-1.18,.92-2.24,2.03-3.14,3.32-.9,1.29-1.6,2.67-2.09,4.13-.5,1.5-.74,3.02-.71,4.49s.32,2.82,.86,4c.53,1.14,1.27,2.09,2.21,2.81,.94,.72,2.02,1.17,3.22,1.36,1.25,.19,2.56,.07,3.91-.34s2.66-1.11,3.89-2.06c1.18-.92,2.24-2.03,3.14-3.32,.9-1.29,1.6-2.68,2.09-4.13,.5-1.5,.74-3.02,.71-4.49s-.31-2.82-.86-4c-.53-1.15-1.27-2.09-2.21-2.81-.94-.72-2.02-1.17-3.22-1.36-1.25-.19-2.56-.07-3.92,.35"></path>
        <path class="k" d="M114.82,324.11c-.92,.28-1.69-.3-1.7-1.31s.72-2.05,1.64-2.34,1.69,.3,1.71,1.31-.72,2.05-1.64,2.34m-.07-4.1c-1.15,.36-2.08,1.67-2.05,2.92s.98,1.99,2.13,1.63,2.08-1.67,2.05-2.92-.98-1.99-2.13-1.63"></path>
        <polyline class="k" points="115.06 317.07 114.34 317.29 114.1 319.86 114.51 319.79 114.71 317.73 114.98 319.64 115.4 319.46 115.06 317.07"></polyline>
        <path class="k" d="M115.93,321.17l-.78,.42c-.11,.06-.23,.11-.34,.14-.11,.03-.21,.05-.32,.07l-.87,.08-.07,.47,.87-.08c.13-.01,.27-.04,.4-.08,.14-.04,.29-.1,.43-.18l.77-.42-.09-.42"></path>
        <path class="k" d="M109.4,326.12c-.17,.05-.31-.05-.32-.24s.14-.38,.31-.44,.32,.05,.32,.24-.14,.38-.31,.44m-.02-1.14c-.4,.12-.73,.58-.72,1.02s.34,.7,.75,.57,.73-.58,.72-1.02-.34-.7-.75-.57"></path>
        <polyline class="k" points="112.28 322.51 106.33 324.34 106.35 325.14 112.32 324.11 112.36 323.64 107.22 324.53 112.29 322.97 112.28 322.51"></polyline>
        <polyline class="k" points="112.83 320.97 111.75 321.3 111.76 321.76 112.84 321.43 112.83 320.97"></polyline>
        <path class="k" d="M120.26,322.78c-.17,.05-.31-.05-.32-.24s.14-.38,.31-.44,.32,.05,.32,.24-.14,.38-.31,.44m-.02-1.14c-.4,.12-.73,.58-.72,1.02s.34,.7,.75,.57,.73-.58,.72-1.02-.34-.7-.75-.57"></path>
        <polyline class="k" points="123.23 319.14 117.28 320.97 117.29 321.43 122.36 319.86 117.24 322.14 117.3 322.58 123.25 319.94 123.23 319.14"></polyline>
        <polyline class="k" points="117.77 319.45 116.68 319.78 116.69 320.24 117.77 319.91 117.77 319.45"></polyline>
      </g>
      <g>
        <path class="k" d="M220.74,222.64c-2.56,.79-4.99,.45-6.84-.96-1.85-1.42-2.89-3.73-2.95-6.52s.9-5.72,2.67-8.26c1.78-2.53,4.17-4.36,6.73-5.15,2.56-.79,4.99-.45,6.84,.96,1.85,1.41,2.9,3.73,2.95,6.52s-.9,5.72-2.67,8.26c-1.78,2.53-4.16,4.36-6.73,5.15m-.4-21.35c-1.35,.42-2.66,1.11-3.88,2.06-1.18,.92-2.24,2.04-3.14,3.32-.9,1.29-1.6,2.67-2.08,4.13-.5,1.5-.73,3.02-.71,4.49s.32,2.82,.86,4c.53,1.14,1.27,2.09,2.21,2.8,.94,.72,2.02,1.17,3.22,1.35,1.24,.19,2.56,.07,3.91-.35s2.66-1.11,3.88-2.06c1.18-.92,2.24-2.04,3.14-3.32,.9-1.29,1.6-2.68,2.08-4.13,.5-1.5,.73-3.02,.71-4.49-.03-1.47-.32-2.82-.86-4-.53-1.15-1.27-2.09-2.21-2.81-.94-.72-2.02-1.17-3.23-1.35-1.24-.19-2.56-.07-3.91,.35"></path>
        <polyline class="k" points="222.46 212.1 218.66 213.27 218.67 213.73 222.46 212.56 222.46 212.1"></polyline>
        <polyline class="k" points="222.97 211.12 218.12 212.62 218.13 213.08 222.98 211.58 222.97 211.12"></polyline>
        <path class="k" d="M215.76,217.78c-.08,.02-.14-.03-.14-.11v-.78l.66-.21v.78c.02,.08-.05,.18-.12,.2l-.39,.12m9.34-2.89c-.08,.02-.15-.03-.15-.11v-.78l.66-.21v.78c.02,.08-.05,.18-.13,.2l-.39,.12m-9.53,.37l-.02-1.12,1.24,.1v.64l-1.22,.38m8.78-2.71v-.64l1.21-.86,.02,1.12-1.23,.38m-7.13,2.2l-.02-.8-.14-.17-1.44-.12,.62-1.74,8.55-2.64,.68,1.33-1.42,1-.13,.26,.02,.8-6.71,2.07m-2.12-2.94s-.06,0-.08-.01v-.04l.04-.29s.04-.07,.09-.09l.61-.19s.08,0,.09,.02c.03,.07,.07,.16,.11,.24v.02h0v.02s-.05,.05-.09,.07l-.78,.24m10.05-3.11s-.07,0-.09-.02h0v-.04c.03-.11,.07-.22,.1-.31,.01-.03,.05-.07,.09-.08l.61-.19c.05-.02,.09,0,.09,.03l.07,.25v.05s-.06,.05-.09,.06l-.78,.24m-8.76,2.71l.36-1.41h0c.09-.47,.44-.87,.84-1l5.76-1.78c.4-.12,.76,.06,.87,.46l.41,1.19-8.24,2.55m6.95-4.64l-5.76,1.78c-.59,.18-1.1,.78-1.24,1.44l-.2,.8c-.1-.08-.24-.11-.39-.06l-.61,.19c-.24,.07-.44,.31-.49,.56l-.05,.29c-.03,.16,0,.31,.1,.41,.1,.1,.25,.14,.42,.08l.67-.21-.66,1.83v.05l.03,1.45v.46l.02,.71v.23l.02,1.01c0,.34,.26,.53,.57,.44l.39-.12c.31-.1,.56-.45,.55-.79l-.02-1.24-1.09,.34v-.71l1.43-.44,7.13-2.2,1.44-.44v.71l-1.08,.34,.02,1.24c0,.34,.26,.53,.58,.44l.39-.12c.31-.1,.56-.45,.55-.79l-.02-1.01v-.23l-.02-.71v-.46l-.04-1.45v-.05l-.72-1.41,.68-.21c.16-.05,.31-.17,.41-.34,.09-.15,.12-.32,.08-.46l-.07-.26c-.06-.22-.27-.33-.51-.26l-.61,.19c-.15,.05-.29,.16-.39,.3l-.23-.67c-.16-.58-.69-.85-1.28-.66"></path>
        <polyline class="k" points="223.87 213.87 217.33 215.89 217.34 216.35 223.88 214.33 223.87 213.87"></polyline>
      </g>
    </g>
  </g>
</svg>
